<svg width="514" height="509" viewBox="0 0 514 509" fill="none" xmlns="http://www.w3.org/2000/svg">
<g clip-path="url(#clip0_80_6)">
<path d="M256.351 37.0349C254.035 30.6782 251.719 24.2293 249.496 17.8726C238.934 16.9513 228.372 16.03 217.811 15.1088C195.298 68.5423 172.785 121.976 150.272 175.409C127.296 174.488 104.319 173.567 81.3432 172.645C76.2477 184.53 71.2448 196.414 66.1492 208.298C61.5169 206.917 56.9773 205.535 52.345 204.153C43.6363 206.917 34.9275 209.68 26.1262 212.352C17.4174 258.968 8.70872 305.584 0 352.2C7.31903 354.043 22.0497 357.636 22.0497 357.636C27.5159 405.818 32.8893 454.093 38.3554 502.275C191.777 502.183 345.199 501.998 498.713 501.906C503.809 448.841 508.997 395.684 514.093 342.619C511.777 325.76 509.46 308.809 507.237 291.949C499.547 294.161 457.671 305.676 457.671 305.676C457.671 305.676 446.924 278.868 430.155 237.134C427.839 231.699 425.523 226.171 423.3 220.736C413.664 228.935 404.029 237.134 394.394 245.426C390.225 243.122 386.149 240.819 381.979 238.608C364.747 158.919 347.7 79.5053 330.746 0L256.351 37.0349Z" fill="#5A93BE"/>
<path d="M74.858 504.209V279.512H118.865C130.446 279.512 139.803 280.249 146.937 281.631C153.978 283.013 159.444 285.224 163.335 288.172C167.226 291.212 169.728 294.898 171.025 299.412C172.229 303.926 172.878 309.361 172.878 315.81C172.878 321.799 172.044 326.866 170.283 331.011C168.616 335.157 166.485 338.75 163.983 341.79C173.619 343.54 181.679 346.489 188.164 350.634C194.649 354.78 199.837 360.4 203.729 367.309C207.62 374.311 210.492 382.51 212.159 391.999C213.827 401.488 214.753 412.359 214.753 424.612C214.753 439.997 213.642 452.895 211.511 463.121C209.38 473.347 204.933 481.546 198.263 487.719C191.592 493.799 181.957 498.129 169.45 500.524C156.942 503.012 140.359 504.209 119.791 504.209H74.858ZM143.323 319.035C143.323 315.165 143.045 312.125 142.397 309.73C141.748 307.335 140.544 305.584 138.784 304.294C137.024 303.005 134.522 302.176 131.279 301.899C128.037 301.623 123.868 301.439 118.68 301.439V341.79C124.609 341.606 129.149 341.053 132.484 340.316C135.819 339.579 138.228 338.289 139.896 336.447C141.471 334.604 142.49 332.301 142.86 329.537C143.138 326.866 143.323 323.273 143.323 319.035ZM119.421 480.809C121.181 481.27 123.034 481.454 124.887 481.454C126.74 481.454 128.871 481.546 131.187 481.731C140.173 482.56 147.215 482.007 152.403 480.164C157.591 478.23 161.482 474.913 164.169 470.215C166.856 465.516 168.523 459.344 169.264 451.789C170.005 444.235 170.376 435.114 170.376 424.704C170.376 412.083 169.728 401.765 168.523 393.934C167.226 386.011 165.188 379.838 162.223 375.324C159.259 370.81 155.275 367.77 150.272 366.204C145.269 364.637 138.876 363.808 131.187 363.808C126.369 363.808 122.107 364.085 118.587 364.73C118.587 394.118 118.865 432.903 119.421 480.809Z" fill="white"/>
<path d="M229.021 279.512C243.752 279.512 258.575 279.512 273.306 279.512V504.209H229.021C229.021 448.381 229.021 392.46 229.021 336.631C229.021 317.653 229.021 298.583 229.021 279.512Z" fill="white"/>
<path d="M340.381 435.206C340.752 444.235 341.215 451.697 341.864 457.87C342.512 463.95 343.809 468.925 345.755 472.794C347.701 476.664 350.665 479.335 354.649 480.993C358.54 482.56 364.006 483.389 371.047 483.389C376.791 483.389 381.424 482.468 385.129 480.625C388.835 478.782 391.707 475.742 393.838 471.504C395.969 467.267 397.451 461.555 398.285 454.461C399.119 447.367 399.49 438.615 399.49 428.113C399.49 417.242 398.934 408.49 397.729 402.133C396.525 395.684 394.024 390.801 390.225 387.393C386.334 383.984 380.775 381.773 373.363 380.852C365.952 379.93 355.853 379.378 343.161 379.378V391.907H303.879V279.512H428.951V301.991H343.346V353.674C356.595 353.674 369.009 354.043 380.497 354.78C392.078 355.517 402.176 358.189 410.978 362.611C419.779 367.125 426.635 374.219 431.638 383.984C436.641 393.749 439.142 407.568 439.142 425.533C439.142 442.485 438.494 456.304 437.289 467.082C435.992 477.861 433.027 486.429 428.303 492.601C423.578 498.774 416.536 503.104 407.272 505.407C398.007 507.802 385.222 508.908 369.194 508.908C355.761 508.908 344.643 507.894 335.749 505.868C326.855 503.841 319.814 500.064 314.533 494.628C309.252 489.193 305.547 481.638 303.416 471.965C301.285 462.292 300.173 450.039 300.173 435.022H340.381V435.206Z" fill="white"/>
</g>
<defs>
<clipPath id="clip0_80_6">
<rect width="514" height="509" fill="white"/>
</clipPath>
</defs>
</svg>
